<?xml version="1.0" encoding="UTF-8" standalone="no"?>
<svg
   id="Calque_1"
   data-name="Calque 1"
   viewBox="0 0 1989.1983 1137.7136"
   version="1.1"
   sodipodi:docname="logo-principal.svg"
   width="1989.1984"
   height="1137.7136"
   inkscape:version="1.4 (e7c3feb100, 2024-10-09)"
   xmlns:inkscape="http://www.inkscape.org/namespaces/inkscape"
   xmlns:sodipodi="http://sodipodi.sourceforge.net/DTD/sodipodi-0.dtd"
   xmlns="http://www.w3.org/2000/svg"
   xmlns:svg="http://www.w3.org/2000/svg">
  <sodipodi:namedview
     id="namedview16"
     pagecolor="#ffffff"
     bordercolor="#999999"
     borderopacity="1"
     inkscape:showpageshadow="2"
     inkscape:pageopacity="0"
     inkscape:pagecheckerboard="0"
     inkscape:deskcolor="#d1d1d1"
     inkscape:zoom="0.21778554"
     inkscape:cx="420.13809"
     inkscape:cy="273.20455"
     inkscape:window-width="1218"
     inkscape:window-height="1129"
     inkscape:window-x="26"
     inkscape:window-y="23"
     inkscape:window-maximized="0"
     inkscape:current-layer="Calque_1" />
  <defs
     id="defs1">
    <style
       id="style1">
      .cls-1 {
        fill: #3c6f71;
      }

      .cls-2 {
        fill: none;
        stroke: #1d1d1b;
        stroke-miterlimit: 10;
        stroke-width: 5px;
      }

      .cls-3 {
        fill: #1d1d1b;
      }
    </style>
  </defs>
  <path
     class="cls-2"
     d="m 1810.7255,522.19334 c 65.82,42.53 109.49,110.57 114.41,185.5 1.49,7.9 3.59,15.47 6.69,22.72 4.28,10.78 12.32,20.67 20.53,29.55 8.41,9.57 16.6,18.87 26.24,27.48 9.6,7.56 11.16,20.2 2.04,28.71 -7.2,7.15 -17.12,11.88 -19.91,20.84 -3.41,10.86 6.83,22.3 1.61,32.91 -2.56,5.11 -9.28,8.57 -10.91,13.11 -1.36,3.13 -0.11,6.31 1.25,9.28 6.8,13.05 -5.57,20.21 -10.2,30.93 -4.62,18.88 -4.36,38.76 -25.14,49.61 -9.41,5.21 -21.54,5.94 -32.85,6.68 -19.33,1.12 -38.92,-0.03 -57.98,3.3 -51.02,17.77996 -74.74,111.70996 -101.32,153.55996"
     id="path1" />
  <g
     id="g11"
     transform="translate(-299.82453,-245.93666)">
    <path
       class="cls-1"
       d="m 830.29,1312.86 c -79.15,-41.85 -141.33,-99.67 -186.54,-173.48 -45.23,-73.79 -67.84,-156.61 -67.84,-248.41 0,-91.8 22.6,-176.4 67.84,-251.12 45.21,-74.7 107.39,-133.19 186.54,-175.51 79.13,-42.3 167.86,-63.45 266.18,-63.45 104.19,0 197.35,23.18 279.44,69.53 82.08,46.37 143.78,109.59 185.07,189.69 l -41.29,17.55 c -39.33,-72.91 -95.62,-130.05 -168.85,-171.46 -73.25,-41.39 -158.04,-62.1 -254.38,-62.1 -89.47,0 -170.09,19.37 -241.84,58.06 -71.77,38.71 -128.06,92.04 -168.85,159.98 -40.8,67.97 -61.2,144.25 -61.2,228.84 0,84.59 20.39,159.1 61.2,226.14 40.78,67.06 97.07,119.71 168.85,157.96 71.75,38.27 152.37,57.38 241.84,57.38 99.28,0 185.55,-20.7 258.8,-62.1 73.23,-41.39 128.53,-99.45 165.9,-174.16 l 44.24,17.55 c -41.29,82.82 -102.99,147.16 -185.07,193.06 -82.1,45.9 -176.73,68.85 -283.87,68.85 -98.32,0 -187.05,-20.92 -266.18,-62.78 z"
       id="path2" />
    <path
       class="cls-1"
       d="m 1659.64,900.55 h -306.73 v -22.57 h 662.12 v 22.57 h -306.72 v 471.04 h -48.67 z"
       id="path3" />
    <g
       id="g7">
      <path
         class="cls-1"
         d="m 785.85,1092.69 c -11.6,-6.1 -20.74,-14.48 -27.4,-25.15 -6.67,-10.66 -10,-22.61 -10,-35.85 0,-13.24 3.33,-25.23 10,-35.98 6.67,-10.74 15.8,-19.17 27.4,-25.28 11.6,-6.1 24.53,-9.16 38.77,-9.16 14.24,0 27.45,3.06 39.05,9.16 11.6,6.11 20.69,14.53 27.27,25.28 6.58,10.75 9.86,22.74 9.86,35.98 0,13.24 -3.29,25.19 -9.86,35.85 -6.57,10.66 -15.67,19.05 -27.27,25.15 -11.6,6.11 -24.62,9.16 -39.05,9.16 -14.43,0 -27.17,-3.05 -38.77,-9.16 z m 73.3,-6.71 c 10.23,-5.42 18.27,-12.85 24.11,-22.31 5.84,-9.45 8.77,-20.12 8.77,-31.98 0,-11.86 -2.93,-22.57 -8.77,-32.11 -5.85,-9.55 -13.89,-17.03 -24.11,-22.44 -10.23,-5.42 -21.74,-8.12 -34.53,-8.12 -12.79,0 -24.3,2.71 -34.53,8.12 -10.23,5.42 -18.27,12.9 -24.11,22.44 -5.85,9.54 -8.77,20.25 -8.77,32.11 0,11.86 2.92,22.53 8.77,31.98 5.84,9.46 13.88,16.9 24.11,22.31 10.23,5.42 21.74,8.13 34.53,8.13 12.79,0 24.29,-2.71 34.53,-8.13 z"
         id="path4" />
      <path
         class="cls-1"
         d="m 941.08,1092.69 c -9.32,-6.1 -15.89,-14.57 -19.73,-25.41 l 8.22,-2.58 c 3.47,9.46 9.09,16.77 16.85,21.92 7.76,5.16 16.85,7.74 27.27,7.74 11.32,0 20.55,-2.66 27.68,-7.99 7.12,-5.33 10.69,-12.21 10.69,-20.64 0,-6.19 -1.78,-11.17 -5.34,-14.96 -3.56,-3.78 -7.86,-6.75 -12.88,-8.9 -5.03,-2.15 -12.56,-4.86 -22.61,-8.12 -10.05,-3.27 -18.09,-6.4 -24.12,-9.42 -6.03,-3.01 -10.82,-6.84 -14.39,-11.48 -3.56,-4.64 -5.34,-10.49 -5.34,-17.54 0,-9.97 4.15,-18.14 12.47,-24.5 8.31,-6.36 18.95,-9.54 31.92,-9.54 10.78,0 20.42,2.62 28.91,7.87 8.5,5.25 14.48,12.34 17.95,21.28 l -7.67,2.84 c -2.92,-7.74 -7.9,-13.76 -14.93,-18.06 -7.03,-4.3 -15.12,-6.45 -24.25,-6.45 -10.78,0 -19.46,2.41 -26.03,7.22 -6.58,4.82 -9.86,11.18 -9.86,19.09 0,5.85 1.51,10.62 4.52,14.32 3.01,3.7 7.12,6.75 12.33,9.16 5.21,2.41 12.47,5.08 21.78,8 10.05,3.27 18.18,6.32 24.39,9.16 6.21,2.84 11.37,6.71 15.48,11.61 4.11,4.9 6.16,11.14 6.16,18.7 0,6.88 -2.01,13.02 -6.03,18.44 -4.02,5.42 -9.59,9.67 -16.72,12.77 -7.12,3.09 -15.17,4.64 -24.11,4.64 -12.43,0 -23.29,-3.05 -32.61,-9.16 z"
         id="path5" />
      <path
         class="cls-1"
         d="m 1052.88,964.11 h 8.77 v 27.08 c 4.2,-9.11 10.32,-16.38 18.36,-21.8 8.04,-5.42 16.9,-8.12 26.58,-8.12 10.41,0 19.41,2.93 26.99,8.77 7.58,5.85 12.74,14.02 15.48,24.5 3.84,-9.97 9.95,-18.01 18.36,-24.12 8.4,-6.1 17.81,-9.16 28.23,-9.16 8.4,0 15.94,1.93 22.61,5.8 6.67,3.87 11.96,9.46 15.89,16.77 3.92,7.31 5.89,16.04 5.89,26.18 V 1099 h -8.77 v -88.73 c 0,-12.73 -3.43,-22.78 -10.28,-30.18 C 1214.14,972.7 1205.14,969 1194,969 c -8.04,0 -15.34,2.19 -21.92,6.58 -6.58,4.39 -11.74,10.15 -15.48,17.28 -3.75,7.13 -5.62,14.66 -5.62,22.57 V 1099 h -8.77 v -88.73 c 0,-12.73 -3.43,-22.78 -10.28,-30.18 -6.85,-7.39 -15.85,-11.09 -26.99,-11.09 -8.22,0 -15.62,2.15 -22.2,6.45 -6.58,4.3 -11.74,10.02 -15.48,17.15 -3.75,7.14 -5.62,14.75 -5.62,22.83 V 1099 h -8.77 V 964.1 Z"
         id="path6" />
      <path
         class="cls-1"
         d="m 1309.37,1093.33 c -11.33,-5.68 -20.46,-13.84 -27.4,-24.5 -6.94,-10.66 -10.41,-23.12 -10.41,-37.4 0,-13.41 3.19,-25.45 9.59,-36.11 6.39,-10.66 15.25,-19 26.58,-25.02 11.32,-6.02 24.11,-9.03 38.36,-9.03 13.15,0 25.21,2.62 36.17,7.87 10.96,5.25 19.77,13.07 26.44,23.47 6.67,10.41 10,23 10,37.79 0,2.06 -0.09,3.61 -0.27,4.64 h -138.38 c 0.55,12.04 3.97,22.53 10.28,31.47 6.3,8.94 14.34,15.78 24.11,20.5 9.77,4.73 20.32,7.1 31.65,7.1 12.24,0 23.47,-2.45 33.7,-7.35 10.23,-4.9 18.63,-12.42 25.21,-22.57 l 6.85,4.39 c -7.49,11.18 -16.95,19.52 -28.36,25.02 -11.42,5.5 -23.89,8.25 -37.41,8.25 -13.52,0 -25.39,-2.84 -36.72,-8.51 z m 100.84,-65.77 c -0.37,-12.9 -3.52,-23.77 -9.46,-32.63 -5.94,-8.86 -13.66,-15.43 -23.15,-19.73 -9.5,-4.3 -20,-6.45 -31.51,-6.45 -12.24,0 -23.29,2.49 -33.16,7.48 -9.86,4.99 -17.68,11.95 -23.43,20.89 -5.76,8.95 -8.91,19.09 -9.45,30.44 z"
         id="path7" />
    </g>
    <g
       id="g10">
      <path
         class="cls-1"
         d="m 1812.32,1094.6 c -11.33,-5.68 -20.46,-13.84 -27.4,-24.5 -6.95,-10.66 -10.41,-23.12 -10.41,-37.4 0,-13.41 3.19,-25.45 9.59,-36.11 6.39,-10.66 15.25,-19 26.58,-25.02 11.33,-6.02 24.11,-9.03 38.36,-9.03 13.16,0 25.21,2.62 36.17,7.87 10.96,5.25 19.77,13.07 26.44,23.47 6.67,10.41 10,23 10,37.79 0,2.06 -0.1,3.61 -0.27,4.64 H 1783 c 0.55,12.04 3.97,22.53 10.27,31.47 6.3,8.94 14.34,15.78 24.11,20.5 9.77,4.73 20.32,7.1 31.65,7.1 12.24,0 23.47,-2.45 33.71,-7.35 10.23,-4.9 18.63,-12.42 25.21,-22.57 l 6.85,4.39 c -7.49,11.18 -16.95,19.52 -28.36,25.02 -11.42,5.5 -23.89,8.25 -37.41,8.25 -13.52,0 -25.39,-2.84 -36.72,-8.51 z m 100.84,-65.78 c -0.37,-12.9 -3.52,-23.77 -9.45,-32.63 -5.94,-8.86 -13.66,-15.43 -23.16,-19.73 -9.5,-4.3 -20,-6.45 -31.51,-6.45 -12.24,0 -23.29,2.49 -33.16,7.48 -9.86,4.99 -17.68,11.95 -23.43,20.89 -5.76,8.95 -8.91,19.09 -9.46,30.44 h 130.16 z"
         id="path8" />
      <path
         class="cls-1"
         d="m 1961.12,1093.95 c -9.32,-6.1 -15.89,-14.57 -19.73,-25.41 l 8.22,-2.58 c 3.47,9.46 9.09,16.77 16.85,21.92 7.76,5.16 16.85,7.74 27.27,7.74 11.33,0 20.55,-2.66 27.68,-7.99 7.12,-5.33 10.68,-12.21 10.68,-20.64 0,-6.19 -1.78,-11.17 -5.34,-14.96 -3.56,-3.78 -7.86,-6.75 -12.88,-8.9 -5.03,-2.15 -12.56,-4.86 -22.61,-8.12 -10.05,-3.27 -18.08,-6.4 -24.11,-9.42 -6.03,-3.01 -10.83,-6.84 -14.39,-11.48 -3.56,-4.64 -5.34,-10.49 -5.34,-17.54 0,-9.97 4.15,-18.14 12.47,-24.5 8.31,-6.36 18.95,-9.54 31.92,-9.54 10.78,0 20.41,2.62 28.91,7.87 8.5,5.25 14.48,12.34 17.95,21.28 l -7.67,2.84 c -2.93,-7.74 -7.91,-13.76 -14.94,-18.06 -7.04,-4.3 -15.12,-6.45 -24.25,-6.45 -10.78,0 -19.46,2.41 -26.03,7.22 -6.58,4.82 -9.86,11.18 -9.86,19.09 0,5.85 1.51,10.62 4.52,14.32 3.01,3.7 7.12,6.75 12.33,9.16 5.21,2.41 12.47,5.08 21.78,8 10.04,3.27 18.18,6.32 24.39,9.16 6.21,2.84 11.37,6.71 15.48,11.61 4.11,4.9 6.17,11.14 6.17,18.7 0,6.88 -2.02,13.02 -6.03,18.44 -4.02,5.42 -9.59,9.67 -16.72,12.77 -7.12,3.09 -15.16,4.64 -24.11,4.64 -12.42,0 -23.29,-3.05 -32.61,-9.16 z"
         id="path9" />
      <path
         class="cls-1"
         d="m 2091,1092.28 c -5.66,-6.36 -8.49,-15.99 -8.49,-28.89 V 972.6 h -26.31 v -7.22 h 16.44 c 3.65,0 6.16,-0.21 7.54,-0.65 1.37,-0.43 2.23,-1.33 2.6,-2.71 0.36,-1.37 0.54,-3.87 0.54,-7.48 v -19.6 h 7.67 v 30.44 h 38.36 v 7.22 h -38.09 v 90.54 c 0,11.18 2.15,19.13 6.44,23.86 4.29,4.73 11.46,7.09 21.51,7.09 3.1,0 6.58,-0.26 10.41,-0.77 v 7.73 c -3.84,0.52 -7.77,0.78 -11.78,0.78 -12.24,0 -21.19,-3.18 -26.85,-9.54 z"
         id="path10" />
    </g>
  </g>
  <path
     class="cls-3"
     d="m 770.83547,109.50334 c -65.64,-3.1 -131.7,5.85 -194.41,25.36 -60.38,18.78 -117.97,47.27 -168.92,84.8 -50.07,36.88 -93.34,82.53 -125.45,135.91 -33.35,55.44 -54.19,117.95 -61.32,182.23 -7.11,64.08 -0.5,129.54 18.57,191.1 2.32,7.51 4.84,14.95 7.52,22.34 1.09,3 5.92,1.71 4.82,-1.33 -21.79,-60.01 -31.62,-124.16 -27.94,-187.94 3.68,-63.78 21.13,-127.23 51.34,-183.89 29.27,-54.89 70.07,-102.6 118.54,-141.46 48.58,-38.95 104.22,-69.11 162.88,-89.86 61.01,-21.58 125.64,-33.08 190.39,-32.87 8,0.03 15.99,0.24 23.98,0.62 3.22,0.15 3.21,-4.85 0,-5 v 0 z"
     id="path11" />
  <path
     class="cls-3"
     d="m 223.65547,639.85334 c -23.63,-0.15 -47.27,0.23 -70.89,1.13 -23.62,0.9 -47.09,2.33 -70.589996,4.28 -13.28,1.1 -26.54,2.37 -39.79,3.81 -1.34,0.15 -2.5,1.05 -2.5,2.5 0,1.24 1.15,2.65 2.5,2.5 23.53,-2.55 47.11,-4.58 70.729996,-6.07 23.52,-1.49 47.07,-2.46 70.63,-2.9 13.3,-0.25 26.6,-0.33 39.9,-0.25 3.22,0.02 3.22,-4.98 0,-5 v 0 z"
     id="path12" />
  <path
     class="cls-3"
     d="m 229.45547,479.70334 c -29.89,-2.73 -59.71,-6.26 -89.41,-10.64 -29.44,-4.34 -58.759996,-9.48 -87.909996,-15.44 -16.4,-3.35 -32.74,-6.96 -49.0200001,-10.83 -3.12999996,-0.74 -4.46,4.08 -1.33,4.82 29.1600001,6.92 58.5200001,13.02 88.0300001,18.3 29.509996,5.28 59.319996,9.74 89.149996,13.39 16.8,2.06 33.63,3.85 50.49,5.39 1.35,0.12 2.5,-1.24 2.5,-2.5 0,-1.45 -1.15,-2.38 -2.5,-2.5 v 0 z"
     id="path13" />
  <path
     class="cls-3"
     d="m 297.73547,332.89334 c -22,-10.33 -43.49,-21.7 -64.61,-33.73 -20.93,-11.91 -41.49,-24.45 -61.91,-37.22 -11.49,-7.19 -22.94,-14.45 -34.39,-21.7 -2.73,-1.73 -5.24,2.6 -2.52,4.32 20.28,12.86 40.56,25.72 61.09,38.18 20.53,12.46 41.55,24.66 62.89,35.98 12.16,6.45 24.47,12.63 36.93,18.49 1.22,0.57 2.7,0.34 3.42,-0.9 0.63,-1.09 0.33,-2.84 -0.9,-3.42 z"
     id="path14" />
  <path
     class="cls-3"
     d="m 417.95547,213.35334 c -13.71,-17.82 -27.67,-35.45 -41.9,-52.86 -14.23,-17.41 -28.79,-34.71 -43.56,-51.74 -8.37,-9.650003 -16.82,-19.230003 -25.34,-28.740003 -2.15,-2.4 -5.68,1.14 -3.54,3.54 15.04,16.780003 29.84,33.760003 44.38,50.970003 14.42,17.06 28.59,34.32 42.5,51.8 7.79,9.79 15.51,19.64 23.13,29.56 0.82,1.07 2.15,1.64 3.42,0.9 1.05,-0.62 1.73,-2.34 0.9,-3.42 v 0 z"
     id="path15" />
  <path
     class="cls-3"
     d="m 601.76547,127.23334 c -6.62,-16.69 -13.56,-33.250003 -20.8,-49.680003 -7.24,-16.43 -14.81,-32.76 -22.66,-48.93 -4.46,-9.17 -9.01,-18.29 -13.66,-27.3599999 -1.47,-2.87 -5.78,-0.34000004 -4.32,2.52 8.18,15.9699999 16.07,32.0899999 23.65,48.3499999 7.49,16.06 14.69,32.27 21.58,48.600003 3.89,9.24 7.69,18.51 11.38,27.83 0.5,1.25 1.67,2.13 3.08,1.75 1.19,-0.33 2.25,-1.81 1.75,-3.08 z"
     id="path16" />
</svg>
