<?xml version="1.0" standalone="no"?>
<!DOCTYPE svg PUBLIC "-//W3C//DTD SVG 20010904//EN"
 "http://www.w3.org/TR/2001/REC-SVG-20010904/DTD/svg10.dtd">
<svg version="1.0" xmlns="http://www.w3.org/2000/svg"
 width="1881.000000pt" height="1770.000000pt" viewBox="0 0 1881.000000 1770.000000"
 preserveAspectRatio="xMidYMid meet">

<g transform="translate(0.000000,1770.000000) scale(0.100000,-0.100000)"
fill="#000000" stroke="none">
<path d="M7526 17674 c-9 -8 -16 -21 -16 -29 0 -7 64 -145 141 -307 236 -491
579 -1271 579 -1317 0 -5 -24 -17 -52 -27 -86 -28 -383 -147 -528 -212 -592
-262 -1151 -589 -1658 -969 -92 -69 -171 -127 -177 -129 -5 -2 -35 31 -67 74
-251 343 -888 1126 -1327 1632 -170 197 -172 198 -205 164 -34 -34 -20 -60
122 -222 393 -450 864 -1026 1256 -1536 131 -172 136 -180 119 -196 -10 -10
-82 -72 -161 -139 -504 -430 -973 -940 -1359 -1480 -58 -80 -108 -150 -113
-154 -13 -14 -380 176 -761 394 -337 192 -675 400 -1191 733 -126 80 -234 146
-241 146 -20 0 -47 -33 -47 -59 0 -24 37 -49 538 -368 545 -346 1060 -647
1455 -848 97 -49 177 -94 177 -99 0 -4 -38 -68 -84 -140 -290 -454 -558 -995
-756 -1528 l-74 -198 -30 0 c-71 0 -633 68 -1001 121 -523 75 -1233 208 -1754
329 -249 57 -265 60 -282 44 -22 -20 -25 -57 -5 -73 22 -19 510 -128 976 -220
583 -114 1220 -210 1865 -282 104 -11 191 -22 193 -24 2 -2 -18 -72 -43 -157
-174 -575 -289 -1211 -326 -1811 l-13 -196 -50 -5 c-28 -3 -217 -8 -421 -10
-509 -7 -1089 -41 -1650 -96 -267 -27 -264 -26 -275 -56 -15 -38 3 -64 44 -64
19 0 148 11 288 24 637 62 1105 86 2044 106 7 0 13 -103 17 -332 9 -432 30
-700 83 -1068 307 -2122 1465 -4050 3225 -5372 708 -532 1511 -957 2349 -1243
714 -243 1398 -382 2205 -447 214 -17 1005 -17 1225 0 868 68 1651 237 2416
522 1528 570 2852 1558 3826 2855 221 294 461 667 632 980 70 129 75 141 59
153 -10 7 -75 42 -145 77 l-126 65 -72 -133 c-108 -196 -238 -410 -374 -612
-1719 -2561 -4770 -3927 -7891 -3534 -1809 228 -3496 1052 -4780 2334 -1290
1290 -2090 2963 -2269 4750 -50 490 -50 1058 0 1555 230 2317 1514 4429 3499
5755 328 220 560 354 925 535 1406 696 2961 975 4555 814 864 -86 1766 -329
2559 -689 1133 -513 2121 -1263 2913 -2212 234 -280 516 -675 692 -971 40 -68
76 -122 80 -120 31 14 262 151 267 159 11 19 -249 430 -441 694 -1418 1959
-3620 3219 -6050 3464 -351 35 -571 44 -1013 38 -419 -5 -526 -11 -857 -48
-571 -63 -1239 -208 -1739 -379 -49 -16 -91 -28 -93 -27 -1 2 -49 116 -107
253 -182 436 -379 871 -555 1222 -71 142 -84 162 -105 162 -14 0 -32 -7 -40
-16z"/>
<path d="M10915 15783 c-2559 -74 -4919 -1398 -6285 -3528 -682 -1062 -1078
-2274 -1159 -3545 -14 -209 -14 -676 -1 -885 106 -1698 763 -3262 1906 -4535
154 -172 520 -531 689 -675 1197 -1026 2638 -1652 4205 -1829 310 -35 432 -41
880 -41 463 0 565 5 920 46 2479 287 4662 1749 5863 3927 32 56 57 106 57 110
0 5 -16 16 -35 25 l-34 16 -37 -67 c-103 -187 -230 -397 -348 -577 -998 -1513
-2534 -2627 -4301 -3120 -1614 -450 -3363 -362 -4916 248 -491 193 -1015 467
-1451 757 -1671 1117 -2816 2822 -3192 4755 -93 481 -130 873 -130 1395 0 469
27 801 100 1229 125 741 350 1414 698 2096 833 1632 2247 2906 3981 3588 513
201 1080 353 1655 441 673 104 1452 113 2150 25 1798 -225 3446 -1074 4678
-2409 299 -324 604 -725 837 -1100 43 -69 84 -135 91 -147 14 -22 15 -22 49
-6 19 9 35 19 35 23 0 10 -141 237 -230 370 -826 1234 -2005 2210 -3375 2792
-882 376 -1788 577 -2775 618 -230 9 -303 10 -525 3z"/>
<path d="M11054 14093 c-25 -43 -26 -48 -10 -57 10 -6 81 -53 159 -105 721
-478 1295 -1110 1656 -1821 235 -462 374 -927 426 -1430 18 -166 30 -224 81
-382 69 -215 159 -377 306 -554 111 -133 415 -451 569 -595 232 -216 254 -240
272 -294 22 -64 21 -140 -2 -191 -28 -62 -79 -113 -214 -216 -152 -115 -228
-192 -264 -266 -26 -52 -28 -67 -28 -167 0 -92 5 -125 29 -205 16 -52 31 -127
34 -167 6 -98 -16 -141 -120 -235 -104 -94 -133 -143 -132 -223 0 -47 8 -77
34 -135 27 -58 35 -88 34 -130 0 -67 -17 -101 -119 -240 -42 -58 -87 -125
-100 -150 -12 -25 -42 -133 -65 -240 -48 -227 -76 -315 -133 -424 -74 -144
-221 -262 -399 -322 -169 -58 -386 -78 -998 -94 -407 -10 -651 -30 -744 -61
-196 -66 -441 -237 -619 -433 -305 -335 -523 -707 -977 -1661 -178 -375 -275
-565 -373 -728 l-65 -107 43 -30 c24 -17 47 -30 52 -30 12 0 103 152 196 325
41 77 176 352 300 610 418 876 609 1200 899 1525 150 168 356 324 518 391 130
55 314 72 955 89 510 14 671 31 850 91 140 47 226 100 335 209 137 136 195
256 255 526 71 324 62 298 123 382 167 231 187 271 186 382 0 53 -8 81 -37
148 -56 126 -55 128 79 257 122 119 139 154 139 290 -1 83 -7 119 -35 215 -68
236 -40 314 172 475 222 169 281 234 314 349 25 91 16 179 -30 271 -30 61 -51
87 -119 146 -114 101 -564 554 -668 675 -159 183 -241 314 -314 502 -53 137
-85 272 -101 427 -61 583 -239 1137 -532 1655 -370 655 -929 1244 -1611 1697
-85 57 -160 103 -167 103 -7 0 -24 -21 -40 -47z"/>
</g>
</svg>
